<svg xmlns="http://www.w3.org/2000/svg" width="100" height="100" viewBox="0 0 100 100">
  <!-- Ornamental corner rune pattern (forest variant) -->
  <g stroke="#67a85f" stroke-width="0.55" fill="none">
    <!-- Top-left -->
    <circle cx="10" cy="10" r="8" opacity="0.35" />
    <path d="M 5 10 L 15 10 M 10 5 L 10 15" opacity="0.26" />
    <path d="M 6 6 L 14 14 M 14 6 L 6 14" opacity="0.18" />

    <!-- Top-right -->
    <circle cx="90" cy="10" r="8" opacity="0.35" />
    <path d="M 85 10 L 95 10 M 90 5 L 90 15" opacity="0.26" />
    <path d="M 86 6 L 94 14 M 94 6 L 86 14" opacity="0.18" />

    <!-- Bottom-left -->
    <circle cx="10" cy="90" r="8" opacity="0.35" />
    <path d="M 5 90 L 15 90 M 10 85 L 10 95" opacity="0.26" />
    <path d="M 6 86 L 14 94 M 14 86 L 6 94" opacity="0.18" />

    <!-- Bottom-right -->
    <circle cx="90" cy="90" r="8" opacity="0.35" />
    <path d="M 85 90 L 95 90 M 90 85 L 90 95" opacity="0.26" />
    <path d="M 86 86 L 94 94 M 94 86 L 86 94" opacity="0.18" />
  </g>

  <!-- Repeatable border accent -->
  <line x1="0" y1="50" x2="100" y2="50" stroke="#67a85f" stroke-width="0.9" opacity="0.12" />
  <circle cx="25" cy="50" r="2" fill="#cceaa2" opacity="0.20" />
  <circle cx="50" cy="50" r="2" fill="#cceaa2" opacity="0.20" />
  <circle cx="75" cy="50" r="2" fill="#cceaa2" opacity="0.20" />
</svg>
